<mxfile host="app.diagrams.net" agent="Mozilla/5.0 (Windows NT 10.0; Win64; x64) AppleWebKit/537.36 (KHTML, like Gecko) Chrome/128.0.0.0 Safari/537.36 OPR/114.0.0.0" version="24.8.3">
  <diagram name="Page-1" id="-jvWHQiPxjb6vUNr7f3y">
    <mxGraphModel dx="2227" dy="800" grid="1" gridSize="10" guides="1" tooltips="1" connect="1" arrows="1" fold="1" page="1" pageScale="1" pageWidth="850" pageHeight="1100" math="0" shadow="0">
      <root>
        <mxCell id="0" />
        <mxCell id="1" parent="0" />
        <mxCell id="hwIPxxSlxYZEDSsfCCJQ-2" value="Region" style="shape=mxgraph.ibm.box;prType=region;fontStyle=0;verticalAlign=top;align=left;spacingLeft=32;spacingTop=4;fillColor=none;rounded=0;whiteSpace=wrap;html=1;strokeColor=#919191;strokeWidth=2;dashed=0;container=1;spacing=-4;collapsible=0;expand=0;recursiveResize=0;" vertex="1" parent="1">
          <mxGeometry x="-100" y="30" width="900" height="770" as="geometry" />
        </mxCell>
        <mxCell id="hwIPxxSlxYZEDSsfCCJQ-14" value="" style="sketch=0;outlineConnect=0;fontColor=#232F3E;gradientColor=none;fillColor=#8C4FFF;strokeColor=none;dashed=0;verticalLabelPosition=bottom;verticalAlign=top;align=center;html=1;fontSize=12;fontStyle=0;aspect=fixed;pointerEvents=1;shape=mxgraph.aws4.internet_gateway;" vertex="1" parent="hwIPxxSlxYZEDSsfCCJQ-2">
          <mxGeometry x="88" y="342" width="58" height="58" as="geometry" />
        </mxCell>
        <mxCell id="hwIPxxSlxYZEDSsfCCJQ-18" value="Public subnet" style="points=[[0,0],[0.25,0],[0.5,0],[0.75,0],[1,0],[1,0.25],[1,0.5],[1,0.75],[1,1],[0.75,1],[0.5,1],[0.25,1],[0,1],[0,0.75],[0,0.5],[0,0.25]];outlineConnect=0;gradientColor=none;html=1;whiteSpace=wrap;fontSize=12;fontStyle=0;container=1;pointerEvents=0;collapsible=0;recursiveResize=0;shape=mxgraph.aws4.group;grIcon=mxgraph.aws4.group_security_group;grStroke=0;strokeColor=#7AA116;fillColor=#F2F6E8;verticalAlign=top;align=left;spacingLeft=30;fontColor=#248814;dashed=0;" vertex="1" parent="hwIPxxSlxYZEDSsfCCJQ-2">
          <mxGeometry x="240" y="120" width="610" height="580" as="geometry" />
        </mxCell>
        <mxCell id="hwIPxxSlxYZEDSsfCCJQ-33" value="&lt;font style=&quot;font-size: 35px;&quot;&gt;N&lt;/font&gt;&lt;div style=&quot;font-size: 35px;&quot;&gt;&lt;font style=&quot;font-size: 35px;&quot;&gt;A&lt;/font&gt;&lt;/div&gt;&lt;div style=&quot;font-size: 35px;&quot;&gt;&lt;font style=&quot;font-size: 35px;&quot;&gt;C&lt;/font&gt;&lt;/div&gt;&lt;div style=&quot;font-size: 35px;&quot;&gt;&lt;font style=&quot;font-size: 35px;&quot;&gt;L&lt;/font&gt;&lt;/div&gt;" style="rounded=0;whiteSpace=wrap;html=1;fillColor=none;strokeColor=#FF4108;fontColor=#FF3333;strokeWidth=10;" vertex="1" parent="hwIPxxSlxYZEDSsfCCJQ-18">
          <mxGeometry x="-24" y="171.75" width="50" height="186.5" as="geometry" />
        </mxCell>
        <mxCell id="hwIPxxSlxYZEDSsfCCJQ-35" value="" style="outlineConnect=0;dashed=0;verticalLabelPosition=bottom;verticalAlign=top;align=center;html=1;shape=mxgraph.aws3.route_table;fillColor=#F58536;gradientColor=none;" vertex="1" parent="hwIPxxSlxYZEDSsfCCJQ-18">
          <mxGeometry x="128" y="220.5" width="75" height="69" as="geometry" />
        </mxCell>
        <mxCell id="hwIPxxSlxYZEDSsfCCJQ-39" value="" style="group" vertex="1" connectable="0" parent="hwIPxxSlxYZEDSsfCCJQ-18">
          <mxGeometry x="288" y="180" width="210" height="150" as="geometry" />
        </mxCell>
        <mxCell id="hwIPxxSlxYZEDSsfCCJQ-29" value="&lt;font style=&quot;font-size: 14px;&quot;&gt;Security group&lt;/font&gt;" style="fillColor=none;strokeColor=#DD3522;verticalAlign=top;fontStyle=0;fontColor=#DD3522;whiteSpace=wrap;html=1;" vertex="1" parent="hwIPxxSlxYZEDSsfCCJQ-39">
          <mxGeometry width="210" height="150" as="geometry" />
        </mxCell>
        <mxCell id="hwIPxxSlxYZEDSsfCCJQ-30" value="" style="sketch=0;points=[[0,0,0],[0.25,0,0],[0.5,0,0],[0.75,0,0],[1,0,0],[0,1,0],[0.25,1,0],[0.5,1,0],[0.75,1,0],[1,1,0],[0,0.25,0],[0,0.5,0],[0,0.75,0],[1,0.25,0],[1,0.5,0],[1,0.75,0]];outlineConnect=0;fontColor=#232F3E;fillColor=#ED7100;strokeColor=#ffffff;dashed=0;verticalLabelPosition=bottom;verticalAlign=top;align=center;html=1;fontSize=12;fontStyle=0;aspect=fixed;shape=mxgraph.aws4.resourceIcon;resIcon=mxgraph.aws4.ec2;" vertex="1" parent="hwIPxxSlxYZEDSsfCCJQ-39">
          <mxGeometry x="76.36363636363637" y="37.15384615384615" width="67.0909090909091" height="67.0909090909091" as="geometry" />
        </mxCell>
        <mxCell id="hwIPxxSlxYZEDSsfCCJQ-38" value="&lt;font style=&quot;font-size: 14px;&quot;&gt;&lt;b&gt;EC2 Instance&lt;/b&gt;&lt;/font&gt;" style="text;html=1;align=center;verticalAlign=middle;whiteSpace=wrap;rounded=0;fontSize=14;" vertex="1" parent="hwIPxxSlxYZEDSsfCCJQ-39">
          <mxGeometry x="68.72727272727273" y="112.84615384615385" width="95.45454545454545" height="27.692307692307693" as="geometry" />
        </mxCell>
        <mxCell id="hwIPxxSlxYZEDSsfCCJQ-40" value="Route t&lt;span style=&quot;background-color: initial; font-size: 16px;&quot;&gt;able&lt;/span&gt;" style="text;html=1;align=center;verticalAlign=middle;whiteSpace=wrap;rounded=0;fontSize=16;" vertex="1" parent="hwIPxxSlxYZEDSsfCCJQ-18">
          <mxGeometry x="110.5" y="300" width="110" height="30" as="geometry" />
        </mxCell>
        <mxCell id="hwIPxxSlxYZEDSsfCCJQ-3" value="VPC" style="sketch=0;outlineConnect=0;gradientColor=none;html=1;whiteSpace=wrap;fontSize=12;fontStyle=0;shape=mxgraph.aws4.group;grIcon=mxgraph.aws4.group_vpc;strokeColor=#879196;fillColor=none;verticalAlign=top;align=left;spacingLeft=30;fontColor=#879196;dashed=1;" vertex="1" parent="hwIPxxSlxYZEDSsfCCJQ-18">
          <mxGeometry x="-120" y="-70" width="760" height="680" as="geometry" />
        </mxCell>
        <mxCell id="hwIPxxSlxYZEDSsfCCJQ-51" value="" style="endArrow=classic;html=1;rounded=0;" edge="1" parent="hwIPxxSlxYZEDSsfCCJQ-18">
          <mxGeometry width="50" height="50" relative="1" as="geometry">
            <mxPoint x="-104" y="250" as="sourcePoint" />
            <mxPoint x="-28" y="250" as="targetPoint" />
          </mxGeometry>
        </mxCell>
        <mxCell id="hwIPxxSlxYZEDSsfCCJQ-53" value="" style="endArrow=none;html=1;rounded=0;" edge="1" parent="hwIPxxSlxYZEDSsfCCJQ-18">
          <mxGeometry width="50" height="50" relative="1" as="geometry">
            <mxPoint x="26" y="250" as="sourcePoint" />
            <mxPoint x="130" y="250" as="targetPoint" />
          </mxGeometry>
        </mxCell>
        <mxCell id="hwIPxxSlxYZEDSsfCCJQ-54" value="" style="endArrow=classic;html=1;rounded=0;" edge="1" parent="hwIPxxSlxYZEDSsfCCJQ-18">
          <mxGeometry width="50" height="50" relative="1" as="geometry">
            <mxPoint x="200" y="251" as="sourcePoint" />
            <mxPoint x="288" y="251" as="targetPoint" />
          </mxGeometry>
        </mxCell>
        <mxCell id="hwIPxxSlxYZEDSsfCCJQ-41" value="&lt;font style=&quot;font-size: 16px;&quot;&gt;Internet Gateway&lt;/font&gt;" style="text;html=1;align=center;verticalAlign=middle;whiteSpace=wrap;rounded=0;" vertex="1" parent="hwIPxxSlxYZEDSsfCCJQ-2">
          <mxGeometry x="93" y="421" width="60" height="30" as="geometry" />
        </mxCell>
        <mxCell id="hwIPxxSlxYZEDSsfCCJQ-42" value="Actor" style="shape=umlActor;verticalLabelPosition=bottom;verticalAlign=top;html=1;outlineConnect=0;" vertex="1" parent="hwIPxxSlxYZEDSsfCCJQ-2">
          <mxGeometry x="20" y="341" width="30" height="60" as="geometry" />
        </mxCell>
        <mxCell id="hwIPxxSlxYZEDSsfCCJQ-45" value="" style="endArrow=none;html=1;rounded=0;" edge="1" parent="hwIPxxSlxYZEDSsfCCJQ-2">
          <mxGeometry width="50" height="50" relative="1" as="geometry">
            <mxPoint x="43" y="370.47" as="sourcePoint" />
            <mxPoint x="93" y="370.47" as="targetPoint" />
          </mxGeometry>
        </mxCell>
      </root>
    </mxGraphModel>
  </diagram>
</mxfile>
